<svg xmlns="http://www.w3.org/2000/svg" width="1100" height="720" viewBox="0 0 1100 720">
  <rect width="1100" height="720" fill="#ffffff"/>
  <text x="52" y="46" font-family="Arial, sans-serif" font-size="25" font-weight="700" fill="#1f2933">Preferred Lipper-Award Portfolio: 10-Year Estimated Performance</text>
  <text x="52" y="74" font-family="Arial, sans-serif" font-size="14" fill="#52606d">35% IG Mackenzie Global Resource, 25% Fidelity Technology Innovators, 25% NBI Global Real Assets, 10% Mackenzie Precious Metals, 5% cash</text>

  <text x="52" y="104" font-family="Arial, sans-serif" font-size="18" font-weight="700" fill="#1f2933">Calendar-Year Return Estimate</text>
  <line x1="70" y1="340" x2="1045" y2="340" stroke="#d9e2ec" stroke-width="1"/>
  <line x1="70" y1="297.3" x2="1045" y2="297.3" stroke="#52606d" stroke-width="1.4"/>
  <line x1="70" y1="254.5" x2="1045" y2="254.5" stroke="#d9e2ec" stroke-width="1"/>
  <line x1="70" y1="211.8" x2="1045" y2="211.8" stroke="#d9e2ec" stroke-width="1"/>
  <line x1="70" y1="169.1" x2="1045" y2="169.1" stroke="#d9e2ec" stroke-width="1"/>
  <line x1="70" y1="126.4" x2="1045" y2="126.4" stroke="#d9e2ec" stroke-width="1"/>
  <text x="30" y="344" font-family="Arial, sans-serif" font-size="12" fill="#627d98">-10%</text>
  <text x="40" y="301" font-family="Arial, sans-serif" font-size="12" fill="#627d98">0%</text>
  <text x="32" y="258" font-family="Arial, sans-serif" font-size="12" fill="#627d98">10%</text>
  <text x="32" y="216" font-family="Arial, sans-serif" font-size="12" fill="#627d98">20%</text>
  <text x="32" y="173" font-family="Arial, sans-serif" font-size="12" fill="#627d98">30%</text>
  <text x="32" y="130" font-family="Arial, sans-serif" font-size="12" fill="#627d98">40%</text>

  <rect x="90" y="163.1" width="56" height="134.2" fill="#246a73" rx="4"/><text x="118" y="155.1" text-anchor="middle" font-family="Arial, sans-serif" font-size="12" font-weight="700" fill="#1f2933">31.4%</text><text x="118" y="363" text-anchor="middle" font-family="Arial, sans-serif" font-size="12" fill="#1f2933">2016</text>
  <rect x="186" y="267.1" width="56" height="30.2" fill="#246a73" rx="4"/><text x="214" y="259.1" text-anchor="middle" font-family="Arial, sans-serif" font-size="12" font-weight="700" fill="#1f2933">7.1%</text><text x="214" y="363" text-anchor="middle" font-family="Arial, sans-serif" font-size="12" fill="#1f2933">2017</text>
  <rect x="282" y="297.3" width="56" height="30.1" fill="#d1495b" rx="4"/><text x="310" y="345.4" text-anchor="middle" font-family="Arial, sans-serif" font-size="12" font-weight="700" fill="#1f2933">-7.1%</text><text x="310" y="363" text-anchor="middle" font-family="Arial, sans-serif" font-size="12" fill="#1f2933">2018</text>
  <rect x="378" y="205.5" width="56" height="91.7" fill="#246a73" rx="4"/><text x="406" y="197.5" text-anchor="middle" font-family="Arial, sans-serif" font-size="12" font-weight="700" fill="#1f2933">21.5%</text><text x="406" y="363" text-anchor="middle" font-family="Arial, sans-serif" font-size="12" fill="#1f2933">2019</text>
  <rect x="474" y="232.8" width="56" height="64.5" fill="#246a73" rx="4"/><text x="502" y="224.8" text-anchor="middle" font-family="Arial, sans-serif" font-size="12" font-weight="700" fill="#1f2933">15.1%</text><text x="502" y="363" text-anchor="middle" font-family="Arial, sans-serif" font-size="12" fill="#1f2933">2020</text>
  <rect x="570" y="184.5" width="56" height="112.8" fill="#246a73" rx="4"/><text x="598" y="176.5" text-anchor="middle" font-family="Arial, sans-serif" font-size="12" font-weight="700" fill="#1f2933">26.4%</text><text x="598" y="363" text-anchor="middle" font-family="Arial, sans-serif" font-size="12" fill="#1f2933">2021</text>
  <rect x="666" y="294.1" width="56" height="3.2" fill="#246a73" rx="2"/><text x="694" y="286.1" text-anchor="middle" font-family="Arial, sans-serif" font-size="12" font-weight="700" fill="#1f2933">0.7%</text><text x="694" y="363" text-anchor="middle" font-family="Arial, sans-serif" font-size="12" fill="#1f2933">2022</text>
  <rect x="762" y="235.2" width="56" height="62.1" fill="#246a73" rx="4"/><text x="790" y="227.2" text-anchor="middle" font-family="Arial, sans-serif" font-size="12" font-weight="700" fill="#1f2933">14.5%</text><text x="790" y="363" text-anchor="middle" font-family="Arial, sans-serif" font-size="12" fill="#1f2933">2023</text>
  <rect x="858" y="206.8" width="56" height="90.5" fill="#246a73" rx="4"/><text x="886" y="198.8" text-anchor="middle" font-family="Arial, sans-serif" font-size="12" font-weight="700" fill="#1f2933">21.2%</text><text x="886" y="363" text-anchor="middle" font-family="Arial, sans-serif" font-size="12" fill="#1f2933">2024</text>
  <rect x="954" y="114.9" width="56" height="182.4" fill="#246a73" rx="4"/><text x="982" y="106.9" text-anchor="middle" font-family="Arial, sans-serif" font-size="12" font-weight="700" fill="#1f2933">42.7%</text><text x="982" y="363" text-anchor="middle" font-family="Arial, sans-serif" font-size="12" fill="#1f2933">2025</text>

  <text x="52" y="410" font-family="Arial, sans-serif" font-size="18" font-weight="700" fill="#1f2933">Growth of $10,000, Rebalanced Annually</text>
  <line x1="80" y1="650" x2="1040" y2="650" stroke="#d9e2ec" stroke-width="1"/>
  <line x1="80" y1="592.1" x2="1040" y2="592.1" stroke="#d9e2ec" stroke-width="1"/>
  <line x1="80" y1="534.2" x2="1040" y2="534.2" stroke="#d9e2ec" stroke-width="1"/>
  <line x1="80" y1="476.3" x2="1040" y2="476.3" stroke="#d9e2ec" stroke-width="1"/>
  <text x="27" y="654" font-family="Arial, sans-serif" font-size="12" fill="#627d98">$10k</text>
  <text x="27" y="596" font-family="Arial, sans-serif" font-size="12" fill="#627d98">$20k</text>
  <text x="27" y="538" font-family="Arial, sans-serif" font-size="12" fill="#627d98">$30k</text>
  <text x="27" y="480" font-family="Arial, sans-serif" font-size="12" fill="#627d98">$40k</text>
  <polyline points="100.0,631.8 200.0,626.4 300.0,632.2 400.0,615.9 500.0,602.1 600.0,574.1 700.0,573.1 800.0,553.6 900.0,520.9 1000.0,441.0" fill="none" stroke="#5b5f97" stroke-width="4"/>
  <circle cx="100.0" cy="631.8" r="5" fill="#5b5f97"/><circle cx="200.0" cy="626.4" r="5" fill="#5b5f97"/><circle cx="300.0" cy="632.2" r="5" fill="#5b5f97"/><circle cx="400.0" cy="615.9" r="5" fill="#5b5f97"/><circle cx="500.0" cy="602.1" r="5" fill="#5b5f97"/><circle cx="600.0" cy="574.1" r="5" fill="#5b5f97"/><circle cx="700.0" cy="573.1" r="5" fill="#5b5f97"/><circle cx="800.0" cy="553.6" r="5" fill="#5b5f97"/><circle cx="900.0" cy="520.9" r="5" fill="#5b5f97"/><circle cx="1000.0" cy="441.0" r="5" fill="#5b5f97"/>
  <text x="973" y="428" font-family="Arial, sans-serif" font-size="13" font-weight="700" fill="#5b5f97">$46.1k</text>
  <text x="93" y="675" text-anchor="middle" font-family="Arial, sans-serif" font-size="12" fill="#1f2933">2016</text><text x="200" y="675" text-anchor="middle" font-family="Arial, sans-serif" font-size="12" fill="#1f2933">2017</text><text x="300" y="675" text-anchor="middle" font-family="Arial, sans-serif" font-size="12" fill="#1f2933">2018</text><text x="400" y="675" text-anchor="middle" font-family="Arial, sans-serif" font-size="12" fill="#1f2933">2019</text><text x="500" y="675" text-anchor="middle" font-family="Arial, sans-serif" font-size="12" fill="#1f2933">2020</text><text x="600" y="675" text-anchor="middle" font-family="Arial, sans-serif" font-size="12" fill="#1f2933">2021</text><text x="700" y="675" text-anchor="middle" font-family="Arial, sans-serif" font-size="12" fill="#1f2933">2022</text><text x="800" y="675" text-anchor="middle" font-family="Arial, sans-serif" font-size="12" fill="#1f2933">2023</text><text x="900" y="675" text-anchor="middle" font-family="Arial, sans-serif" font-size="12" fill="#1f2933">2024</text><text x="1000" y="675" text-anchor="middle" font-family="Arial, sans-serif" font-size="12" fill="#1f2933">2025</text>

  <text x="52" y="704" font-family="Arial, sans-serif" font-size="11" fill="#627d98">Historical estimate from calendar-year fund returns; assumes annual rebalancing and 2%-ish cash return proxy. Past performance is not a forecast.</text>
</svg>
